sit_stand0002_filtered
version=1
nRows=22
nColumns=19
inDegrees=no
endheader
time	ground_force_r_vx	ground_force_r_vy	ground_force_r_vz	ground_force_r_px	ground_force_r_py	ground_force_r_pz	ground_torque_r_x	ground_torque_r_y	ground_torque_r_z	ground_force_l_vx	ground_force_l_vy	ground_force_l_vz	ground_force_l_px	ground_force_l_py	ground_force_l_pz	ground_torque_l_x	ground_torque_l_y	ground_torque_l_z
0.9950000000000001	0.762939	-5.950928	83.925247	-11.627197	2.868652	1.052856	-34.209904	-138.317175	0.0	1.983643	1.983643	5.187988	0.640869	0.183105	-0.762939	-36.508088	122.315441	0.0
0.9966666666666666	1.678467	-7.476807	83.925247	-11.810303	3.234863	0.778198	-38.608077	-140.441217	0.0	2.593994	0.152588	5.187988	1.00708	0.305176	1.800537	-60.411029	194.024265	0.0
0.9983333333333331	1.373291	-7.476807	83.925247	-11.810303	2.868652	1.144409	-34.232995	-140.441217	0.0	1.068115	1.678467	5.79834	0.640869	0.427246	0.091553	-74.269079	109.607237	0.0
1.0	1.068115	-6.561279	85.14595	-11.627197	3.112793	1.052856	-36.59815	-136.311418	0.0	1.983643	0.762939	5.187988	0.091553	0.183105	1.556396	-36.508088	17.180147	0.0
1.0016666666666665	0.457764	-6.866455	84.535599	-11.260986	3.234863	0.778198	-38.283477	-132.952099	0.0	1.068115	2.288818	4.577637	1.00708	0.427246	0.457764	0.0	0.0	0.0
1.0033333333333334	0.457764	-6.866455	83.314896	-11.627197	3.479004	0.778198	-41.77473	-139.295575	0.0	0.152588	0.762939	2.746582	0.640869	0.061035	-1.190186	0.0	0.0	0.0
1.005	0.152588	-5.950928	82.094193	-10.894775	3.601074	0.778198	-43.871053	-132.480519	0.0	1.678467	1.373291	5.187988	0.640869	-0.061035	0.88501	10.7375	122.688971	0.0
1.0066666666666664	0.762939	-5.340576	80.873489	-10.71167	3.112793	1.144409	-38.51961	-132.240042	0.0	0.152588	1.068115	5.187988	0.457764	-0.305176	-1.190186	58.730147	87.581618	0.0
1.0083333333333333	0.457764	-6.561279	81.483841	-10.894775	3.479004	0.595093	-42.713466	-133.449077	0.0	1.373291	1.678467	4.577637	1.00708	0.427246	0.640869	0.0	0.0	0.0
1.0099999999999998	0.762939	-6.561279	80.873489	-11.260986	3.234863	0.869751	-40.029009	-138.984411	0.0	0.457764	1.373291	6.408691	0.640869	0.183105	-1.251221	-28.798214	99.319643	0.0
1.0116666666666667	0.762939	-5.645752	80.263138	-11.077881	2.990723	0.961304	-37.291652	-137.796203	0.0	1.983643	2.288818	5.187988	0.457764	0.305176	-0.030518	-60.0375	86.834559	0.0
1.0133333333333332	0.457764	-5.645752	80.263138	-10.528564	3.234863	0.778198	-40.321333	-130.952259	0.0	1.678467	-0.762939	3.356934	0.640869	0.183105	1.678467	0.0	0.0	0.0
1.0150000000000001	0.457764	-5.0354	80.263138	-10.528564	2.990723	1.052856	-37.27958	-130.976403	0.0	1.678467	2.288818	5.79834	0.823975	0.183105	-0.091553	-32.498026	140.851974	0.0
1.0166666666666666	1.373291	-5.950928	77.821732	-10.345459	2.868652	0.961304	-36.91787	-132.69513	0.0	2.288818	-0.152588	2.746582	0.457764	0.183105	1.556396	0.0	0.0	0.0
1.018333333333333	0.152588	-5.950928	77.821732	-10.528564	2.990723	1.235962	-38.436656	-135.048014	0.0	0.762939	1.678467	3.967285	1.373291	-0.183105	-0.213623	0.0	0.0	0.0
1.02	0.152588	-5.950928	74.769974	-10.894775	2.746582	0.869751	-36.740236	-145.457871	0.0	1.678467	0.152588	3.967285	0.091553	0.671387	1.739502	0.0	0.0	0.0
1.0216666666666665	1.068115	-5.950928	75.380325	-10.162354	2.990723	1.052856	-39.720098	-134.563751	0.0	1.068115	2.593994	7.019043	0.274658	0.549316	-0.213623	-78.744022	37.957065	0.0
1.0233333333333334	0.152588	-4.730225	75.990677	-10.345459	2.868652	1.052856	-37.756432	-135.943526	0.0	0.152588	1.678467	5.79834	0.457764	0.305176	-0.946045	-52.715132	78.028289	0.0
1.025	1.373291	-5.950928	77.21138	-9.979248	2.502441	0.778198	-32.466737	-129.001112	0.0	1.068115	1.068115	3.967285	0.640869	0.305176	0.274658	0.0	0.0	0.0
1.0266666666666664	1.068115	-4.425049	74.159622	-9.613037	3.234863	1.052856	-43.666007	-129.436846	0.0	0.457764	0.457764	3.356934	0.274658	0.061035	-1.00708	0.0	0.0	0.0
1.0283333333333333	1.373291	-5.645752	72.328568	-9.613037	2.624512	0.686646	-36.346246	-132.660056	0.0	1.373291	1.678467	7.629395	0.274658	-0.061035	1.00708	7.4285	35.3015	0.0
1.0299999999999998	0.152588	-5.0354	71.718216	-9.429932	2.746582	0.961304	-38.303609	-131.262945	0.0	1.678467	1.373291	4.577637	0.640869	0.427246	-1.190186	0.0	0.0	0.0
